<svg id="ewXBrTfe3LA1" xmlns="http://www.w3.org/2000/svg" xmlns:xlink="http://www.w3.org/1999/xlink" viewBox="0 0 300 300" shape-rendering="geometricPrecision" text-rendering="geometricPrecision" project-id="75f28372d8344033bc0c310089bccb79" export-id="414997668f904be3a5f8fc5596c3f17c" cached="false"><rect width="53.302593" height="381.035327" rx="0" ry="0" transform="matrix(1 0 0 0.587872 199.971141 75.374505)" fill="#d2dbed" stroke-width="0"/><rect width="53.302593" height="261.967248" rx="0" ry="0" transform="matrix(1.017856 0 0 0.633667 118.027131 133.374504)" fill="#d2dbed" stroke-width="0"/><rect width="53.302593" height="241.875121" rx="0" ry="0" transform="matrix(1 0 0 0.461949 30.934469 188.26603)" fill="#d2dbed" stroke-width="0"/><rect width="53.302593" height="331.01622" rx="0" ry="0" transform="matrix(1 0 0 0.108756 30.934469 144.450368)" fill="#d2dbed" stroke-width="0"/><rect width="53.302593" height="331.01622" rx="0" ry="0" transform="matrix(1 0 0 0.108756 118.027131 86.300169)" fill="#d2dbed" stroke-width="0"/><rect width="53.302593" height="331.01622" rx="0" ry="0" transform="matrix(1 0 0 0.108756 199.971141 31.613093)" fill="#d2dbed" stroke-width="0"/></svg>
